# Blender v2.74 (sub 0) OBJ File: ''
# www.blender.org
mtllib player.mtl
o Cone_Cone.001
v 0.013399 -0.013356 -0.995892
v 0.013399 1.986644 -0.025892
v 0.208489 -0.013356 -0.976677
v 0.019252 1.986644 -0.025316
v 0.396082 -0.013356 -0.919771
v 0.024879 1.986644 -0.023608
v 0.568969 -0.013356 -0.827362
v 0.030066 1.986644 -0.020836
v 0.720506 -0.013356 -0.702999
v 0.034612 1.986644 -0.017105
v 0.844869 -0.013356 -0.551462
v 0.038343 1.986644 -0.012559
v 0.937278 -0.013356 -0.378575
v 0.041115 1.986644 -0.007372
v 0.994184 -0.013356 -0.190982
v 0.042823 1.986644 -0.001745
v 1.013399 -0.013356 0.004108
v 0.043399 1.986644 0.004108
v 0.994184 -0.013356 0.199198
v 0.042823 1.986644 0.009961
v 0.937279 -0.013356 0.386791
v 0.041115 1.986644 0.015589
v 0.844869 -0.013356 0.559678
v 0.038343 1.986644 0.020775
v 0.720506 -0.013356 0.711215
v 0.034612 1.986644 0.025321
v 0.568969 -0.013356 0.835578
v 0.030066 1.986644 0.029052
v 0.396082 -0.013356 0.927988
v 0.024879 1.986644 0.031824
v 0.208489 -0.013356 0.984893
v 0.019252 1.986644 0.033532
v 0.013399 -0.013356 1.004108
v 0.013399 1.986644 0.034108
v -0.181692 -0.013356 0.984893
v 0.007546 1.986644 0.033532
v -0.369285 -0.013356 0.927987
v 0.001918 1.986644 0.031824
v -0.542172 -0.013356 0.835577
v -0.003268 1.986644 0.029052
v -0.693708 -0.013356 0.711214
v -0.007814 1.986644 0.025321
v -0.818071 -0.013356 0.559678
v -0.011545 1.986644 0.020775
v -0.910481 -0.013356 0.386791
v -0.014317 1.986644 0.015589
v -0.967386 -0.013356 0.199198
v -0.016025 1.986644 0.009961
v -0.986601 -0.013356 0.004107
v -0.016601 1.986644 0.004108
v -0.967386 -0.013356 -0.190983
v -0.016025 1.986644 -0.001745
v -0.910480 -0.013356 -0.378576
v -0.014317 1.986644 -0.007372
v -0.818070 -0.013356 -0.551463
v -0.011545 1.986644 -0.012559
v -0.693707 -0.013356 -0.703000
v -0.007814 1.986644 -0.017105
v -0.542170 -0.013356 -0.827362
v -0.003268 1.986644 -0.020836
v -0.369283 -0.013356 -0.919772
v 0.001918 1.986644 -0.023608
v -0.181690 -0.013356 -0.976678
v 0.007546 1.986644 -0.025316
v 0.013399 2.007347 0.004108
v 0.013399 -0.013209 -0.923767
v 0.194418 -0.013209 -0.905938
v 0.368481 -0.013209 -0.853137
v 0.528899 -0.013209 -0.767392
v 0.669506 -0.013209 -0.651999
v 0.784899 -0.013209 -0.511392
v 0.870644 -0.013209 -0.350974
v 0.923445 -0.013209 -0.176911
v 0.941274 -0.013209 0.004108
v 0.923445 -0.013209 0.185127
v 0.870644 -0.013209 0.359190
v 0.784899 -0.013209 0.519608
v 0.669506 -0.013209 0.660215
v 0.528899 -0.013209 0.775608
v 0.368481 -0.013209 0.861353
v 0.194418 -0.013209 0.914154
v 0.013399 -0.013209 0.931983
v -0.167621 -0.013209 0.914154
v -0.341684 -0.013209 0.861353
v -0.502101 -0.013209 0.775608
v -0.642708 -0.013209 0.660214
v -0.758101 -0.013209 0.519607
v -0.843846 -0.013209 0.359190
v -0.896648 -0.013209 0.185127
v -0.914476 -0.013209 0.004107
v -0.896647 -0.013209 -0.176912
v -0.843846 -0.013209 -0.350975
v -0.758100 -0.013209 -0.511393
v -0.642707 -0.013209 -0.652000
v -0.502100 -0.013209 -0.767393
v -0.341682 -0.013209 -0.853137
v -0.167619 -0.013209 -0.905939
v 0.013399 1.833994 -0.030547
v 0.020160 1.833994 -0.029881
v 0.026661 1.833994 -0.027909
v 0.032652 1.833994 -0.024706
v 0.037903 1.833994 -0.020397
v 0.042213 1.833994 -0.015145
v 0.045415 1.833994 -0.009154
v 0.047388 1.833994 -0.002653
v 0.048053 1.833994 0.004108
v 0.047388 1.833994 0.010869
v 0.045415 1.833994 0.017369
v 0.042213 1.833994 0.023361
v 0.037903 1.833994 0.028612
v 0.032652 1.833994 0.032922
v 0.026661 1.833994 0.036124
v 0.020160 1.833994 0.038096
v 0.013399 1.833994 0.038762
v 0.006638 1.833994 0.038096
v 0.000137 1.833994 0.036124
v -0.005854 1.833994 0.032922
v -0.011106 1.833994 0.028612
v -0.015415 1.833994 0.023361
v -0.018618 1.833994 0.017369
v -0.020590 1.833994 0.010868
v -0.021256 1.833994 0.004108
v -0.020590 1.833994 -0.002653
v -0.018618 1.833994 -0.009154
v -0.015415 1.833994 -0.015145
v -0.011106 1.833994 -0.020397
v -0.005854 1.833994 -0.024706
v 0.000137 1.833994 -0.027909
v 0.006638 1.833994 -0.029881
vn 0.000000 -0.509200 -0.860700
vn 0.000000 0.643400 -0.765500
vn 0.149300 0.643400 -0.750800
vn 0.167900 -0.509200 -0.844100
vn 0.292900 0.643400 -0.707200
vn 0.329400 -0.509200 -0.795100
vn 0.425300 0.643400 -0.636500
vn 0.478100 -0.509200 -0.715600
vn 0.541300 0.643400 -0.541300
vn 0.608600 -0.509200 -0.608600
vn 0.636500 0.643400 -0.425300
vn 0.715600 -0.509200 -0.478100
vn 0.707200 0.643400 -0.292900
vn 0.795100 -0.509200 -0.329400
vn 0.750800 0.643400 -0.149300
vn 0.844100 -0.509200 -0.167900
vn 0.765500 0.643400 0.000000
vn 0.860700 -0.509200 0.000000
vn 0.750800 0.643400 0.149300
vn 0.844100 -0.509200 0.167900
vn 0.707200 0.643400 0.292900
vn 0.795100 -0.509200 0.329400
vn 0.636500 0.643400 0.425300
vn 0.715600 -0.509200 0.478100
vn 0.541300 0.643400 0.541300
vn 0.608600 -0.509200 0.608600
vn 0.425300 0.643400 0.636500
vn 0.478100 -0.509200 0.715600
vn 0.292900 0.643400 0.707200
vn 0.329400 -0.509200 0.795100
vn 0.149300 0.643400 0.750800
vn 0.167900 -0.509200 0.844100
vn 0.000000 0.643400 0.765500
vn 0.000000 -0.509200 0.860700
vn -0.149300 0.643400 0.750800
vn -0.167900 -0.509200 0.844100
vn -0.292900 0.643400 0.707200
vn -0.329400 -0.509200 0.795100
vn -0.425300 0.643400 0.636500
vn -0.478100 -0.509200 0.715600
vn -0.541300 0.643400 0.541300
vn -0.608600 -0.509200 0.608600
vn -0.636500 0.643400 0.425300
vn -0.715600 -0.509200 0.478100
vn -0.707200 0.643400 0.292900
vn -0.795100 -0.509200 0.329400
vn -0.750800 0.643400 0.149300
vn -0.844100 -0.509200 0.167900
vn -0.765500 0.643400 0.000000
vn -0.860700 -0.509200 0.000000
vn -0.750800 0.643400 -0.149300
vn -0.844100 -0.509200 -0.167900
vn -0.707200 0.643400 -0.292900
vn -0.795100 -0.509200 -0.329400
vn -0.636500 0.643400 -0.425300
vn -0.715600 -0.509200 -0.478100
vn -0.541300 0.643400 -0.541300
vn -0.608600 -0.509200 -0.608600
vn -0.425300 0.643400 -0.636500
vn -0.478100 -0.509200 -0.715600
vn -0.292900 0.643400 -0.707200
vn -0.329400 -0.509200 -0.795100
vn -0.167900 -0.509200 -0.844100
vn -0.149300 0.643400 -0.750800
vn 0.422100 -0.861600 0.282000
vn 0.469000 -0.861600 0.194300
vn 0.000000 1.000000 0.000000
vn 0.358900 -0.861600 0.358900
vn 0.282000 -0.861600 0.422100
vn 0.308000 -0.832300 0.460900
vn 0.392000 -0.832300 0.392000
vn -0.422100 -0.861600 0.282000
vn -0.358900 -0.861600 0.358900
vn 0.000000 -0.861600 -0.507600
vn -0.099000 -0.861600 -0.497800
vn 0.194300 -0.861600 0.469000
vn 0.282000 -0.861600 -0.422100
vn 0.194300 -0.861600 -0.469000
vn -0.099000 -0.861600 0.497800
vn 0.000000 -0.861600 0.507600
vn -0.507600 -0.861600 0.000000
vn -0.497800 -0.861600 0.099000
vn 0.469000 -0.861600 -0.194300
vn 0.422100 -0.861600 -0.282000
vn -0.422100 -0.861600 -0.282000
vn -0.469000 -0.861600 -0.194300
vn 0.497800 -0.861600 0.099000
vn 0.507600 -0.861600 0.000000
vn -0.282000 -0.861600 0.422100
vn -0.194300 -0.861600 0.469000
vn -0.194300 -0.861600 -0.469000
vn -0.282000 -0.861600 -0.422100
vn 0.099000 -0.861600 -0.497800
vn -0.469000 -0.861600 0.194300
vn 0.099000 -0.861600 0.497800
vn 0.358900 -0.861600 -0.358900
vn -0.497800 -0.861600 -0.099000
vn 0.497800 -0.861600 -0.099000
vn -0.358900 -0.861600 -0.358900
vn 0.000000 -0.832300 0.554300
vn -0.108100 -0.832300 0.543700
vn -0.212100 -0.832300 0.512100
vn -0.308000 -0.832300 0.460900
vn -0.392000 -0.832300 0.392000
vn -0.460900 -0.832300 0.308000
vn -0.512100 -0.832300 0.212100
vn -0.543700 -0.832300 0.108100
vn -0.554300 -0.832300 0.000000
vn -0.543700 -0.832300 -0.108100
vn -0.512100 -0.832300 -0.212100
vn -0.460900 -0.832300 -0.308000
vn -0.392000 -0.832300 -0.392000
vn -0.308000 -0.832300 -0.460900
vn -0.212100 -0.832300 -0.512100
vn -0.108100 -0.832300 -0.543700
vn 0.000000 -0.832300 -0.554300
vn 0.108100 -0.832300 -0.543700
vn 0.212100 -0.832300 -0.512100
vn 0.308000 -0.832300 -0.460900
vn 0.392000 -0.832300 -0.392000
vn 0.460900 -0.832300 -0.308000
vn 0.512100 -0.832300 -0.212100
vn 0.543700 -0.832300 -0.108100
vn 0.554300 -0.832300 0.000000
vn 0.543700 -0.832300 0.108100
vn 0.512100 -0.832300 0.212100
vn 0.460900 -0.832300 0.308000
vn 0.212100 -0.832300 0.512100
vn 0.108100 -0.832300 0.543700
usemtl Material.001
s 1
f 1//1 2//2 4//3 3//4
f 3//4 4//3 6//5 5//6
f 5//6 6//5 8//7 7//8
f 7//8 8//7 10//9 9//10
f 9//10 10//9 12//11 11//12
f 11//12 12//11 14//13 13//14
f 13//14 14//13 16//15 15//16
f 15//16 16//15 18//17 17//18
f 17//18 18//17 20//19 19//20
f 19//20 20//19 22//21 21//22
f 21//22 22//21 24//23 23//24
f 23//24 24//23 26//25 25//26
f 25//26 26//25 28//27 27//28
f 27//28 28//27 30//29 29//30
f 29//30 30//29 32//31 31//32
f 31//32 32//31 34//33 33//34
f 33//34 34//33 36//35 35//36
f 35//36 36//35 38//37 37//38
f 37//38 38//37 40//39 39//40
f 39//40 40//39 42//41 41//42
f 41//42 42//41 44//43 43//44
f 43//44 44//43 46//45 45//46
f 45//46 46//45 48//47 47//48
f 47//48 48//47 50//49 49//50
f 49//50 50//49 52//51 51//52
f 51//52 52//51 54//53 53//54
f 53//54 54//53 56//55 55//56
f 55//56 56//55 58//57 57//58
f 57//58 58//57 60//59 59//60
f 59//60 60//59 62//61 61//62
f 63//63 64//64 2//2 1//1
f 61//62 62//61 64//64 63//63
f 53//54 55//56 93//65 92//66
f 48//47 46//45 65//67
f 26//25 24//23 65//67
f 54//53 52//51 65//67
f 10//9 8//7 65//67
f 32//31 30//29 65//67
f 60//59 58//57 65//67
f 38//37 36//35 65//67
f 16//15 14//13 65//67
f 2//2 64//64 65//67
f 44//43 42//41 65//67
f 22//21 20//19 65//67
f 50//49 48//47 65//67
f 6//5 4//3 65//67
f 28//27 26//25 65//67
f 56//55 54//53 65//67
f 12//11 10//9 65//67
f 34//33 32//31 65//67
f 62//61 60//59 65//67
f 40//39 38//37 65//67
f 4//3 2//2 65//67
f 18//17 16//15 65//67
f 46//45 44//43 65//67
f 24//23 22//21 65//67
f 52//51 50//49 65//67
f 8//7 6//5 65//67
f 30//29 28//27 65//67
f 58//57 56//55 65//67
f 36//35 34//33 65//67
f 14//13 12//11 65//67
f 64//64 62//61 65//67
f 42//41 40//39 65//67
f 20//19 18//17 65//67
f 94//68 95//69 127//70 126//71
f 9//10 11//12 71//72 70//73
f 31//32 33//34 82//74 81//75
f 59//60 61//62 96//76 95//69
f 37//38 39//40 85//77 84//78
f 1//1 3//4 67//79 66//80
f 15//16 17//18 74//81 73//82
f 43//44 45//46 88//83 87//84
f 21//22 23//24 77//85 76//86
f 49//50 51//52 91//87 90//88
f 5//6 7//8 69//89 68//90
f 27//28 29//30 80//91 79//92
f 55//56 57//58 94//68 93//65
f 33//34 35//36 83//93 82//74
f 11//12 13//14 72//94 71//72
f 61//62 63//63 97//95 96//76
f 39//40 41//42 86//96 85//77
f 17//18 19//20 75//97 74//81
f 45//46 47//48 89//98 88//83
f 23//24 25//26 78//99 77//85
f 51//52 53//54 92//66 91//87
f 7//8 9//10 70//73 69//89
f 29//30 31//32 81//75 80//91
f 57//58 59//60 95//69 94//68
f 35//36 37//38 84//78 83//93
f 13//14 15//16 73//82 72//94
f 63//63 1//1 66//80 97//95
f 41//42 43//44 87//84 86//96
f 19//20 21//22 76//86 75//97
f 47//48 49//50 90//88 89//98
f 3//4 5//6 68//90 67//79
f 25//26 27//28 79//92 78//99
f 98//100 99//101 100//102 101//103 102//104 103//105 104//106 105//107 106//108 107//109 108//110 109//111 110//112 111//113 112//114 113//115 114//116 115//117 116//118 117//119 118//120 119//121 120//122 121//123 122//124 123//125 124//126 125//127 126//71 127//70 128//128 129//129
f 83//93 84//78 116//118 115//117
f 72//94 73//82 105//107 104//106
f 92//66 93//65 125//127 124//126
f 70//73 71//72 103//105 102//104
f 81//75 82//74 114//116 113//115
f 90//88 91//87 123//125 122//124
f 68//90 69//89 101//103 100//102
f 79//92 80//91 112//114 111//113
f 88//83 89//98 121//123 120//122
f 66//80 67//79 99//101 98//100
f 77//85 78//99 110//112 109//111
f 97//95 66//80 98//100 129//129
f 86//96 87//84 119//121 118//120
f 75//97 76//86 108//110 107//109
f 95//69 96//76 128//128 127//70
f 84//78 85//77 117//119 116//118
f 73//82 74//81 106//108 105//107
f 93//65 94//68 126//71 125//127
f 82//74 83//93 115//117 114//116
f 71//72 72//94 104//106 103//105
f 91//87 92//66 124//126 123//125
f 69//89 70//73 102//104 101//103
f 80//91 81//75 113//115 112//114
f 89//98 90//88 122//124 121//123
f 67//79 68//90 100//102 99//101
f 78//99 79//92 111//113 110//112
f 87//84 88//83 120//122 119//121
f 76//86 77//85 109//111 108//110
f 96//76 97//95 129//129 128//128
f 85//77 86//96 118//120 117//119
f 74//81 75//97 107//109 106//108
