# Blender v2.74 (sub 0) OBJ File: ''
# www.blender.org
mtllib player.mtl
o Cone_Cone.001
v 0.013399 -0.000324 -0.233492
v 0.013399 0.601984 -0.012881
v 0.059752 -0.000324 -0.228927
v 0.016713 0.601984 -0.012555
v 0.104325 -0.000324 -0.215406
v 0.019900 0.601984 -0.011588
v 0.145402 -0.000324 -0.193449
v 0.022838 0.601984 -0.010018
v 0.181407 -0.000324 -0.163901
v 0.025412 0.601984 -0.007905
v 0.210956 -0.000324 -0.127895
v 0.027525 0.601984 -0.005331
v 0.232913 -0.000324 -0.086818
v 0.029095 0.601984 -0.002393
v 0.246433 -0.000324 -0.042245
v 0.030062 0.601984 0.000794
v 0.250999 -0.000324 0.004108
v 0.030388 0.601984 0.004108
v 0.246433 -0.000324 0.050461
v 0.030062 0.601984 0.007422
v 0.232913 -0.000324 0.095034
v 0.029095 0.601984 0.010609
v 0.210956 -0.000324 0.136112
v 0.027525 0.601984 0.013547
v 0.181407 -0.000324 0.172117
v 0.025412 0.601984 0.016121
v 0.145402 -0.000324 0.201665
v 0.022838 0.601984 0.018234
v 0.104324 -0.000324 0.223622
v 0.019900 0.601984 0.019804
v 0.059752 -0.000324 0.237143
v 0.016713 0.601984 0.020771
v 0.013399 -0.000324 0.241708
v 0.013399 0.601984 0.021097
v -0.032955 -0.000324 0.237143
v 0.010085 0.601984 0.020771
v -0.077527 -0.000324 0.223622
v 0.006897 0.601984 0.019804
v -0.118605 -0.000324 0.201665
v 0.003960 0.601984 0.018234
v -0.154610 -0.000324 0.172117
v 0.001386 0.601984 0.016121
v -0.184158 -0.000324 0.136111
v -0.000727 0.601984 0.013547
v -0.206115 -0.000324 0.095033
v -0.002297 0.601984 0.010609
v -0.219636 -0.000324 0.050461
v -0.003264 0.601984 0.007422
v -0.224201 -0.000324 0.004108
v -0.003590 0.601984 0.004108
v -0.219636 -0.000324 -0.042246
v -0.003264 0.601984 0.000794
v -0.206115 -0.000324 -0.086818
v -0.002297 0.601984 -0.002393
v -0.184158 -0.000324 -0.127896
v -0.000727 0.601984 -0.005331
v -0.154609 -0.000324 -0.163901
v 0.001386 0.601984 -0.007905
v -0.118604 -0.000324 -0.193449
v 0.003960 0.601984 -0.010018
v -0.077526 -0.000324 -0.215406
v 0.006898 0.601984 -0.011588
v -0.032954 -0.000324 -0.228927
v 0.010085 0.601984 -0.012555
v 0.013399 0.611271 0.004108
v 0.013399 -0.000280 -0.216355
v 0.056409 -0.000280 -0.212119
v 0.097767 -0.000280 -0.199573
v 0.135882 -0.000280 -0.179200
v 0.169290 -0.000280 -0.151783
v 0.196707 -0.000280 -0.118375
v 0.217080 -0.000280 -0.080260
v 0.229626 -0.000280 -0.038902
v 0.233862 -0.000280 0.004108
v 0.229626 -0.000280 0.047118
v 0.217080 -0.000280 0.088476
v 0.196707 -0.000280 0.126591
v 0.169290 -0.000280 0.159999
v 0.135882 -0.000280 0.187416
v 0.097766 -0.000280 0.207789
v 0.056409 -0.000280 0.220335
v 0.013399 -0.000280 0.224571
v -0.029611 -0.000280 0.220335
v -0.070969 -0.000280 0.207789
v -0.109084 -0.000280 0.187416
v -0.142492 -0.000280 0.159999
v -0.169910 -0.000280 0.126591
v -0.190282 -0.000280 0.088475
v -0.202828 -0.000280 0.047118
v -0.207064 -0.000280 0.004108
v -0.202828 -0.000280 -0.038902
v -0.190282 -0.000280 -0.080260
v -0.169909 -0.000280 -0.118375
v -0.142492 -0.000280 -0.151783
v -0.109084 -0.000280 -0.179201
v -0.070968 -0.000280 -0.199573
v -0.029611 -0.000280 -0.212119
v 0.013399 0.558803 -0.004126
v 0.015005 0.558803 -0.003968
v 0.016550 0.558803 -0.003499
v 0.017973 0.558803 -0.002738
v 0.019221 0.558803 -0.001714
v 0.020245 0.558803 -0.000467
v 0.021006 0.558803 0.000957
v 0.021475 0.558803 0.002502
v 0.021633 0.558803 0.004108
v 0.021475 0.558803 0.005714
v 0.021006 0.558803 0.007259
v 0.020245 0.558803 0.008682
v 0.019221 0.558803 0.009930
v 0.017973 0.558803 0.010954
v 0.016550 0.558803 0.011715
v 0.015005 0.558803 0.012184
v 0.013399 0.558803 0.012342
v 0.011793 0.558803 0.012184
v 0.010248 0.558803 0.011715
v 0.008824 0.558803 0.010954
v 0.007577 0.558803 0.009930
v 0.006553 0.558803 0.008682
v 0.005792 0.558803 0.007259
v 0.005323 0.558803 0.005714
v 0.005165 0.558803 0.004108
v 0.005323 0.558803 0.002502
v 0.005792 0.558803 0.000957
v 0.006553 0.558803 -0.000467
v 0.007577 0.558803 -0.001714
v 0.008824 0.558803 -0.002738
v 0.010248 0.558803 -0.003499
v 0.011793 0.558803 -0.003968
vn 0.000000 -0.550900 -0.834500
vn 0.000000 0.641800 -0.766900
vn 0.149600 0.641800 -0.752100
vn 0.162800 -0.550900 -0.818500
vn 0.293500 0.641800 -0.708500
vn 0.319300 -0.550900 -0.771000
vn 0.426000 0.641800 -0.637600
vn 0.463600 -0.550900 -0.693900
vn 0.542300 0.641800 -0.542300
vn 0.590100 -0.550900 -0.590100
vn 0.637600 0.641800 -0.426000
vn 0.693900 -0.550900 -0.463600
vn 0.708500 0.641800 -0.293500
vn 0.771000 -0.550900 -0.319300
vn 0.752100 0.641800 -0.149600
vn 0.818500 -0.550900 -0.162800
vn 0.766900 0.641800 0.000000
vn 0.834500 -0.550900 0.000000
vn 0.752100 0.641800 0.149600
vn 0.818500 -0.550900 0.162800
vn 0.708500 0.641800 0.293500
vn 0.771000 -0.550900 0.319300
vn 0.637600 0.641800 0.426000
vn 0.693900 -0.550900 0.463600
vn 0.542300 0.641800 0.542300
vn 0.590100 -0.550900 0.590100
vn 0.426000 0.641800 0.637600
vn 0.463600 -0.550900 0.693900
vn 0.293500 0.641800 0.708500
vn 0.319300 -0.550900 0.771000
vn 0.149600 0.641800 0.752100
vn 0.162800 -0.550900 0.818500
vn 0.000000 0.641800 0.766900
vn 0.000000 -0.550900 0.834500
vn -0.149600 0.641800 0.752100
vn -0.162800 -0.550900 0.818500
vn -0.293500 0.641800 0.708500
vn -0.319300 -0.550900 0.771000
vn -0.426000 0.641800 0.637600
vn -0.463600 -0.550900 0.693900
vn -0.542300 0.641800 0.542300
vn -0.590100 -0.550900 0.590100
vn -0.637600 0.641800 0.426000
vn -0.693900 -0.550900 0.463600
vn -0.708500 0.641800 0.293500
vn -0.771000 -0.550900 0.319300
vn -0.752100 0.641800 0.149600
vn -0.818500 -0.550900 0.162800
vn -0.766900 0.641800 0.000000
vn -0.834500 -0.550900 0.000000
vn -0.752100 0.641800 -0.149600
vn -0.818500 -0.550900 -0.162800
vn -0.708500 0.641800 -0.293500
vn -0.771000 -0.550900 -0.319300
vn -0.637600 0.641800 -0.426000
vn -0.693900 -0.550900 -0.463600
vn -0.542300 0.641800 -0.542300
vn -0.590100 -0.550900 -0.590100
vn -0.426000 0.641800 -0.637600
vn -0.463600 -0.550900 -0.693900
vn -0.293500 0.641800 -0.708500
vn -0.319300 -0.550900 -0.771000
vn -0.162800 -0.550900 -0.818500
vn -0.149600 0.641800 -0.752100
vn 0.452400 -0.839000 0.302300
vn 0.502700 -0.839000 0.208200
vn 0.000000 1.000000 0.000000
vn 0.384700 -0.839000 0.384700
vn 0.302300 -0.839000 0.452400
vn 0.328300 -0.806600 0.491400
vn 0.417900 -0.806600 0.417900
vn -0.452400 -0.839000 0.302300
vn -0.384700 -0.839000 0.384700
vn 0.000000 -0.839000 -0.544100
vn -0.106100 -0.839000 -0.533600
vn 0.208200 -0.839000 0.502700
vn 0.302300 -0.839000 -0.452400
vn 0.208200 -0.839000 -0.502700
vn -0.106100 -0.839000 0.533600
vn 0.000000 -0.839000 0.544100
vn -0.544100 -0.839000 0.000000
vn -0.533600 -0.839000 0.106100
vn 0.502700 -0.839000 -0.208200
vn 0.452400 -0.839000 -0.302300
vn -0.452400 -0.839000 -0.302300
vn -0.502700 -0.839000 -0.208200
vn 0.533600 -0.839000 0.106100
vn 0.544100 -0.839000 0.000000
vn -0.302300 -0.839000 0.452400
vn -0.208200 -0.839000 0.502700
vn -0.208200 -0.839000 -0.502700
vn -0.302300 -0.839000 -0.452400
vn 0.106100 -0.839000 -0.533600
vn -0.502700 -0.839000 0.208200
vn 0.106100 -0.839000 0.533600
vn 0.384700 -0.839000 -0.384700
vn -0.533600 -0.839000 -0.106100
vn 0.533600 -0.839000 -0.106100
vn -0.384700 -0.839000 -0.384700
vn 0.000000 -0.806600 0.591000
vn -0.115300 -0.806600 0.579700
vn -0.226200 -0.806600 0.546000
vn -0.328300 -0.806600 0.491400
vn -0.417900 -0.806600 0.417900
vn -0.491400 -0.806600 0.328300
vn -0.546000 -0.806600 0.226200
vn -0.579700 -0.806600 0.115300
vn -0.591000 -0.806600 0.000000
vn -0.579700 -0.806600 -0.115300
vn -0.546000 -0.806600 -0.226200
vn -0.491400 -0.806600 -0.328300
vn -0.417900 -0.806600 -0.417900
vn -0.328300 -0.806600 -0.491400
vn -0.226200 -0.806600 -0.546000
vn -0.115300 -0.806600 -0.579700
vn 0.000000 -0.806600 -0.591000
vn 0.115300 -0.806600 -0.579700
vn 0.226200 -0.806600 -0.546000
vn 0.328300 -0.806600 -0.491400
vn 0.417900 -0.806600 -0.417900
vn 0.491400 -0.806600 -0.328300
vn 0.546000 -0.806600 -0.226200
vn 0.579700 -0.806600 -0.115300
vn 0.591000 -0.806600 0.000000
vn 0.579700 -0.806600 0.115300
vn 0.546000 -0.806600 0.226200
vn 0.491400 -0.806600 0.328300
vn 0.226200 -0.806600 0.546000
vn 0.115300 -0.806600 0.579700
usemtl Material.001
s 1
f 1//1 2//2 4//3 3//4
f 3//4 4//3 6//5 5//6
f 5//6 6//5 8//7 7//8
f 7//8 8//7 10//9 9//10
f 9//10 10//9 12//11 11//12
f 11//12 12//11 14//13 13//14
f 13//14 14//13 16//15 15//16
f 15//16 16//15 18//17 17//18
f 17//18 18//17 20//19 19//20
f 19//20 20//19 22//21 21//22
f 21//22 22//21 24//23 23//24
f 23//24 24//23 26//25 25//26
f 25//26 26//25 28//27 27//28
f 27//28 28//27 30//29 29//30
f 29//30 30//29 32//31 31//32
f 31//32 32//31 34//33 33//34
f 33//34 34//33 36//35 35//36
f 35//36 36//35 38//37 37//38
f 37//38 38//37 40//39 39//40
f 39//40 40//39 42//41 41//42
f 41//42 42//41 44//43 43//44
f 43//44 44//43 46//45 45//46
f 45//46 46//45 48//47 47//48
f 47//48 48//47 50//49 49//50
f 49//50 50//49 52//51 51//52
f 51//52 52//51 54//53 53//54
f 53//54 54//53 56//55 55//56
f 55//56 56//55 58//57 57//58
f 57//58 58//57 60//59 59//60
f 59//60 60//59 62//61 61//62
f 63//63 64//64 2//2 1//1
f 61//62 62//61 64//64 63//63
f 53//54 55//56 93//65 92//66
f 48//47 46//45 65//67
f 26//25 24//23 65//67
f 54//53 52//51 65//67
f 10//9 8//7 65//67
f 32//31 30//29 65//67
f 60//59 58//57 65//67
f 38//37 36//35 65//67
f 16//15 14//13 65//67
f 2//2 64//64 65//67
f 44//43 42//41 65//67
f 22//21 20//19 65//67
f 50//49 48//47 65//67
f 6//5 4//3 65//67
f 28//27 26//25 65//67
f 56//55 54//53 65//67
f 12//11 10//9 65//67
f 34//33 32//31 65//67
f 62//61 60//59 65//67
f 40//39 38//37 65//67
f 4//3 2//2 65//67
f 18//17 16//15 65//67
f 46//45 44//43 65//67
f 24//23 22//21 65//67
f 52//51 50//49 65//67
f 8//7 6//5 65//67
f 30//29 28//27 65//67
f 58//57 56//55 65//67
f 36//35 34//33 65//67
f 14//13 12//11 65//67
f 64//64 62//61 65//67
f 42//41 40//39 65//67
f 20//19 18//17 65//67
f 94//68 95//69 127//70 126//71
f 9//10 11//12 71//72 70//73
f 31//32 33//34 82//74 81//75
f 59//60 61//62 96//76 95//69
f 37//38 39//40 85//77 84//78
f 1//1 3//4 67//79 66//80
f 15//16 17//18 74//81 73//82
f 43//44 45//46 88//83 87//84
f 21//22 23//24 77//85 76//86
f 49//50 51//52 91//87 90//88
f 5//6 7//8 69//89 68//90
f 27//28 29//30 80//91 79//92
f 55//56 57//58 94//68 93//65
f 33//34 35//36 83//93 82//74
f 11//12 13//14 72//94 71//72
f 61//62 63//63 97//95 96//76
f 39//40 41//42 86//96 85//77
f 17//18 19//20 75//97 74//81
f 45//46 47//48 89//98 88//83
f 23//24 25//26 78//99 77//85
f 51//52 53//54 92//66 91//87
f 7//8 9//10 70//73 69//89
f 29//30 31//32 81//75 80//91
f 57//58 59//60 95//69 94//68
f 35//36 37//38 84//78 83//93
f 13//14 15//16 73//82 72//94
f 63//63 1//1 66//80 97//95
f 41//42 43//44 87//84 86//96
f 19//20 21//22 76//86 75//97
f 47//48 49//50 90//88 89//98
f 3//4 5//6 68//90 67//79
f 25//26 27//28 79//92 78//99
f 98//100 99//101 100//102 101//103 102//104 103//105 104//106 105//107 106//108 107//109 108//110 109//111 110//112 111//113 112//114 113//115 114//116 115//117 116//118 117//119 118//120 119//121 120//122 121//123 122//124 123//125 124//126 125//127 126//71 127//70 128//128 129//129
f 83//93 84//78 116//118 115//117
f 72//94 73//82 105//107 104//106
f 92//66 93//65 125//127 124//126
f 70//73 71//72 103//105 102//104
f 81//75 82//74 114//116 113//115
f 90//88 91//87 123//125 122//124
f 68//90 69//89 101//103 100//102
f 79//92 80//91 112//114 111//113
f 88//83 89//98 121//123 120//122
f 66//80 67//79 99//101 98//100
f 77//85 78//99 110//112 109//111
f 97//95 66//80 98//100 129//129
f 86//96 87//84 119//121 118//120
f 75//97 76//86 108//110 107//109
f 95//69 96//76 128//128 127//70
f 84//78 85//77 117//119 116//118
f 73//82 74//81 106//108 105//107
f 93//65 94//68 126//71 125//127
f 82//74 83//93 115//117 114//116
f 71//72 72//94 104//106 103//105
f 91//87 92//66 124//126 123//125
f 69//89 70//73 102//104 101//103
f 80//91 81//75 113//115 112//114
f 89//98 90//88 122//124 121//123
f 67//79 68//90 100//102 99//101
f 78//99 79//92 111//113 110//112
f 87//84 88//83 120//122 119//121
f 76//86 77//85 109//111 108//110
f 96//76 97//95 129//129 128//128
f 85//77 86//96 118//120 117//119
f 74//81 75//97 107//109 106//108
