# Blender v2.74 (sub 0) OBJ File: ''
# www.blender.org
mtllib stan.mtl
o Cylinder.001
v 0.041685 0.052156 0.054165
v 0.032101 0.147445 0.060057
v -0.054167 0.052161 0.041684
v -0.043201 0.147445 0.052640
v -0.065292 0.052271 0.019806
v -0.058415 0.147484 0.035427
v -0.068731 0.147484 0.004150
v -0.026207 0.147462 -0.063270
v 0.006728 0.147507 -0.068309
v 0.041636 0.147484 -0.054842
v 0.061909 0.147484 -0.028888
v 0.068731 0.147484 0.004150
v 0.054842 0.147484 0.041636
v 0.006728 0.147507 0.068309
v -0.023350 0.147484 0.064204
v -0.062972 0.147523 -0.026084
v -0.050381 0.147484 -0.046142
v 0.000000 0.148121 -0.000000
v 0.017782 0.052169 -0.065997
v 0.041685 0.052161 -0.054167
v 0.059240 0.052152 -0.034089
v 0.067778 0.052175 -0.008830
v 0.065997 0.052169 0.017782
v 0.056622 0.052133 0.037832
v 0.013401 0.052248 0.067368
v -0.017781 0.052175 0.065998
v -0.037833 0.052132 0.056621
v -0.068197 0.052165 -0.004565
v -0.061256 0.052152 -0.030318
v -0.044997 0.052175 -0.051450
v -0.015678 0.052159 -0.067082
vn 0.613000 -0.677700 0.406200
vn 0.612700 0.655000 0.442200
vn 0.439400 -0.669500 0.598900
vn 0.354500 0.668600 0.653600
vn 0.146300 -0.658200 0.738500
vn -0.408800 -0.677100 0.611900
vn -0.469300 0.672100 0.572700
vn -0.590200 -0.670900 0.448800
vn -0.645900 0.665900 0.373300
vn -0.715100 -0.664000 0.218500
vn -0.667200 -0.668300 -0.329000
vn 0.644700 -0.667500 -0.372400
vn -0.283800 0.660600 -0.695000
vn -0.542500 0.665600 -0.512400
vn 0.000000 1.000000 0.000100
vn 0.755000 0.653300 0.056000
vn 0.680600 0.660800 -0.316400
vn 0.081900 0.656900 -0.749500
vn 0.067000 0.660900 0.747500
vn 0.452600 0.653000 -0.607200
vn -0.244200 0.665800 0.705000
vn -0.753200 0.656000 0.048200
vn -0.692100 0.668300 -0.272800
vn 0.185200 -0.665300 -0.723200
vn -0.171400 -0.658400 -0.732900
vn 0.454400 -0.667400 -0.589900
vn 0.737100 -0.668500 -0.098300
vn 0.719100 -0.668600 0.189300
vn -0.177000 -0.669000 0.721900
vn -0.740500 -0.669700 -0.055800
vn -0.483100 -0.665400 -0.569000
usemtl None
s 1
f 24//1 13//2 1//3
f 1//3 2//4 25//5
f 27//6 4//7 3//8
f 3//8 6//9 5//10
f 29//11 21//12 1//3
f 8//13 17//14 18//15
f 12//16 11//17 18//15
f 9//18 8//13 18//15
f 14//19 2//4 18//15
f 10//20 9//18 18//15
f 15//21 14//19 18//15
f 7//22 6//9 18//15
f 13//2 12//16 18//15
f 6//9 4//7 18//15
f 16//23 7//22 18//15
f 4//7 15//21 18//15
f 17//14 16//23 18//15
f 11//17 10//20 18//15
f 2//4 13//2 18//15
f 9//18 19//24 31//25
f 9//18 10//20 19//24
f 10//20 20//26 19//24
f 10//20 21//12 20//26
f 10//20 11//17 21//12
f 11//17 22//27 21//12
f 11//17 12//16 22//27
f 12//16 23//28 22//27
f 12//16 13//2 23//28
f 13//2 24//1 23//28
f 13//2 2//4 1//3
f 25//5 2//4 14//19
f 14//19 26//29 25//5
f 14//19 15//21 26//29
f 15//21 27//6 26//29
f 15//21 4//7 27//6
f 3//8 4//7 6//9
f 5//10 6//9 7//22
f 7//22 28//30 5//10
f 16//23 29//11 28//30
f 28//30 7//22 16//23
f 16//23 17//14 29//11
f 17//14 30//31 29//11
f 17//14 8//13 30//31
f 8//13 31//25 30//31
f 31//25 8//13 9//18
f 29//11 30//31 31//25
f 3//8 5//10 28//30
f 29//11 3//8 28//30
f 25//5 26//29 27//6
f 27//6 1//3 25//5
f 21//12 23//28 24//1
f 23//28 21//12 22//27
f 31//25 19//24 20//26
f 21//12 29//11 31//25
f 29//11 27//6 3//8
f 21//12 24//1 1//3
f 31//25 20//26 21//12
f 1//3 27//6 29//11
o Cylinder
v 0.000000 -0.054580 -0.157169
v 0.030662 -0.054580 -0.154149
v 0.071957 -0.054580 -0.140493
v 0.048463 0.054580 -0.150225
v 0.087318 0.054580 -0.130681
v 0.111135 -0.054580 -0.111135
v 0.111135 0.054580 -0.111135
v 0.137884 -0.054580 -0.076840
v 0.140493 0.054580 -0.071957
v 0.154149 -0.054580 -0.030662
v 0.154149 0.054580 -0.030662
v 0.157169 -0.054580 -0.000000
v 0.154149 -0.054580 0.030662
v 0.156793 0.054580 0.018224
v 0.145205 -0.054580 0.060146
v 0.145205 0.054580 0.060146
v 0.130681 -0.054580 0.087318
v 0.130681 0.054580 0.087318
v 0.111135 -0.054580 0.111135
v 0.111135 0.054580 0.111135
v 0.087318 -0.054580 0.130681
v 0.087318 0.054580 0.130681
v 0.048463 -0.054580 0.150225
v 0.060146 0.054580 0.145205
v 0.030662 0.054580 0.154149
v -0.000000 -0.054580 0.157169
v -0.030662 -0.054580 0.154149
v -0.018224 0.054580 0.156793
v -0.060146 -0.054580 0.145205
v -0.087318 -0.054580 0.130681
v -0.076839 0.054580 0.137884
v -0.111135 -0.054580 0.111135
v -0.111135 0.054580 0.111135
v -0.130681 -0.054580 0.087318
v -0.130681 0.054580 0.087318
v -0.150225 -0.054580 0.048463
v -0.151832 0.054580 0.043164
v -0.157169 -0.054580 -0.000000
v -0.154149 -0.054580 -0.030662
v -0.156793 0.054580 -0.018224
v -0.145205 -0.054580 -0.060146
v -0.145205 0.054580 -0.060146
v -0.130681 -0.054580 -0.087318
v -0.130681 0.054580 -0.087318
v -0.111135 -0.054580 -0.111135
v -0.111135 0.054580 -0.111135
v -0.076839 -0.054580 -0.137884
v -0.087318 0.054580 -0.130681
v -0.030662 -0.054580 -0.154149
v -0.043165 0.054580 -0.151832
v 0.000000 -0.054580 -0.157169
v 0.030662 -0.054580 -0.154149
v 0.060146 -0.054580 -0.145205
v 0.087318 -0.054580 -0.130681
v 0.111135 -0.054580 -0.111135
v 0.130681 -0.054580 -0.087318
v 0.145205 -0.054580 -0.060146
v 0.154149 -0.054580 -0.030662
v 0.157169 -0.054580 -0.000000
v 0.154149 -0.054580 0.030662
v 0.145205 -0.054580 0.060146
v 0.130681 -0.054580 0.087318
v 0.111135 -0.054580 0.111135
v 0.087318 -0.054580 0.130681
v 0.060146 -0.054580 0.145205
v 0.030662 -0.054580 0.154149
v -0.000000 -0.054580 0.157169
v -0.030662 -0.054580 0.154149
v -0.060146 -0.054580 0.145205
v -0.087318 -0.054580 0.130681
v -0.111135 -0.054580 0.111135
v -0.130681 -0.054580 0.087318
v -0.145205 -0.054580 0.060146
v -0.154149 -0.054580 0.030662
v -0.157169 -0.054580 -0.000000
v -0.154149 -0.054580 -0.030662
v -0.145205 -0.054580 -0.060146
v -0.130681 -0.054580 -0.087318
v -0.111135 -0.054580 -0.111135
v -0.087318 -0.054580 -0.130681
v -0.060146 -0.054580 -0.145205
v -0.030662 -0.054580 -0.154149
v 0.010296 -0.058881 -0.126494
v 0.048358 -0.058904 -0.116746
v 0.078837 -0.058881 -0.099456
v 0.105069 -0.058904 -0.070205
v 0.120805 -0.058881 -0.038895
v 0.126365 -0.058904 -0.000000
v 0.122074 -0.058905 0.034704
v 0.099500 -0.058905 0.078779
v 0.061655 -0.058939 0.110931
v 0.014579 -0.058881 0.126072
v -0.024653 -0.058904 0.123937
v -0.057920 -0.058881 0.112925
v -0.096770 -0.058939 0.082112
v -0.120805 -0.058881 0.038895
v -0.126365 -0.058904 -0.000000
v -0.122020 -0.058924 -0.034904
v -0.105068 -0.058904 -0.070205
v -0.082064 -0.058924 -0.096813
v -0.038769 -0.058924 -0.120848
v 0.000000 0.032752 -0.126365
v 0.038965 0.032752 -0.120782
v 0.082220 0.032752 -0.096677
v 0.105069 0.032752 -0.070205
v 0.122074 0.032752 -0.034705
v 0.126063 0.032752 0.014653
v 0.116746 0.032752 0.048358
v 0.096677 0.032752 0.082220
v 0.057854 0.032752 0.112958
v 0.010223 0.032752 0.126499
v -0.038964 0.032752 0.120782
v -0.082220 0.032752 0.096677
v -0.105069 0.032752 0.070204
v -0.122074 0.032752 0.034705
v -0.126063 0.032752 -0.014652
v -0.110859 0.032752 -0.061780
v -0.078779 0.032752 -0.099501
v -0.034705 0.032752 -0.122074
v 0.000000 0.054580 -0.157169
vn 0.004200 0.680300 -0.732800
vn 0.219600 0.676400 -0.703000
vn 0.201900 -0.005900 -0.979400
vn 0.400400 0.685200 -0.608400
vn 0.464000 -0.010800 -0.885700
vn 0.527100 0.682100 -0.506700
vn 0.703000 -0.005200 -0.711200
vn 0.656100 0.673500 -0.340400
vn 0.876100 -0.002700 -0.482100
vn 0.719600 0.680300 -0.138800
vn 0.976700 -0.002900 -0.214400
vn 0.733700 0.674500 0.082200
vn 1.000000 -0.004100 -0.004100
vn 0.678200 0.683100 0.271100
vn 0.925000 0.003800 0.379900
vn 0.605200 0.685700 0.404400
vn 0.831400 0.000000 0.555600
vn 0.514700 0.685700 0.514700
vn 0.707100 0.000000 0.707100
vn 0.403300 0.684300 0.607500
vn 0.545200 0.000000 0.838300
vn 0.283300 0.685900 0.670200
vn 0.303100 -0.005300 0.952900
vn 0.126200 0.684300 0.718100
vn -0.094200 0.672600 0.734000
vn 0.022300 -0.009200 0.999700
vn -0.349800 0.672500 0.652100
vn -0.375900 0.000900 0.926600
vn -0.510000 0.683100 0.522800
vn -0.705000 0.003800 0.709200
vn -0.615900 0.682100 0.394100
vn -0.838300 0.000000 0.545200
vn -0.714800 0.671600 0.194900
vn -0.953300 -0.002700 0.301900
vn -0.736400 0.672500 -0.073600
vn -0.999700 -0.005800 0.024000
vn -0.678200 0.683100 -0.271100
vn -0.925000 0.003800 -0.379900
vn -0.605200 0.685700 -0.404400
vn -0.831400 0.000000 -0.555600
vn -0.514000 0.684300 -0.517100
vn -0.698300 0.000000 -0.715800
vn -0.398100 0.682200 -0.613200
vn -0.484500 -0.005600 -0.874800
vn -0.203700 0.674500 -0.709600
vn -0.003000 0.003800 -1.000000
vn -0.125900 -0.990500 0.055300
vn 0.574300 -0.795800 -0.191700
vn 0.461300 -0.797400 -0.389100
vn 0.126000 -0.990500 0.054900
vn 0.116800 -0.990300 0.075000
vn -0.470100 -0.799100 -0.374600
vn -0.078100 -0.990500 0.112900
vn -0.097000 -0.990100 0.100700
vn 0.138100 -0.990400 0.000800
vn 0.136600 -0.990300 0.024600
vn -0.581600 -0.793200 -0.180300
vn -0.052200 -0.990200 0.129600
vn 0.288900 -0.792500 -0.537000
vn 0.112600 -0.784000 -0.610500
vn 0.128500 -0.990200 -0.054700
vn 0.136300 -0.990300 -0.025700
vn -0.581200 -0.792700 0.183600
vn -0.115100 -0.990500 -0.075200
vn 0.512400 -0.786300 0.345000
vn 0.586900 -0.791100 0.172100
vn 0.099100 -0.990300 -0.097100
vn 0.115600 -0.990300 -0.077200
vn -0.511900 -0.785500 0.347700
vn 0.029700 -0.990500 0.134300
vn -0.001300 -0.990300 0.138700
vn -0.077500 -0.796900 -0.599000
vn -0.138200 -0.990100 -0.025700
vn 0.620700 -0.784000 -0.008200
vn 0.076500 -0.990200 -0.116900
vn -0.377900 -0.794200 0.475700
vn -0.237100 -0.785900 0.571000
vn 0.095700 -0.990400 0.099100
vn -0.003000 -0.990500 -0.137400
vn -0.039400 -0.795700 0.604300
vn 0.183400 -0.800600 0.570500
vn -0.056000 -0.990400 -0.126500
vn 0.383100 -0.797900 0.465300
vn -0.620400 -0.784200 0.009300
vn -0.100600 -0.990100 -0.098100
vn -0.027100 -0.990300 0.136300
vn -0.291700 -0.800700 -0.523200
vn -0.136300 -0.990300 0.025700
vn -0.139000 -0.990300 0.000000
vn 0.028400 -0.990300 -0.135800
vn 0.053200 -0.990300 -0.128400
vn 0.079800 -0.990100 0.114800
vn -0.238500 -0.671600 0.701500
vn -0.000200 -0.679000 0.734100
vn 0.213600 -0.669300 0.711600
vn 0.613900 -0.681100 -0.398900
vn 0.467800 -0.674500 -0.571100
vn -0.672700 -0.681100 -0.288800
vn -0.735100 -0.674400 -0.069700
vn 0.461800 -0.667700 0.583800
vn 0.225300 -0.671700 -0.705700
vn -0.714900 -0.671500 0.194900
vn 0.646400 -0.670200 0.364600
vn -0.061400 -0.669100 -0.740600
vn -0.613000 -0.679500 0.403000
vn 0.736100 -0.671700 0.083300
vn -0.339100 -0.667800 -0.662600
vn 0.714900 -0.671500 -0.194900
vn -0.558900 -0.670200 -0.488300
vn -0.469800 -0.671000 0.573500
vn 0.979300 -0.000700 0.202200
vn -0.202200 -0.000700 0.979300
vn -0.561600 -0.000700 0.827400
vn -0.979300 -0.000700 -0.202200
vn -0.208000 -0.003100 -0.978100
vn -0.116100 -0.990500 0.073400
vn -0.023400 -0.990600 -0.134900
vn -0.073200 -0.990600 -0.115700
vn -0.125200 -0.990600 -0.055500
vn 0.049400 -0.990500 0.128100
usemtl None
s 1
f 151//32 35//33 33//34
f 35//33 36//35 34//36
f 36//35 38//37 37//38
f 38//37 40//39 39//40
f 40//39 42//41 41//42
f 42//41 45//43 43//44
f 45//43 47//45 46//46
f 47//45 49//47 48//48
f 49//47 51//49 50//50
f 51//49 53//51 52//52
f 53//51 55//53 54//54
f 55//53 56//55 54//54
f 56//55 59//56 57//57
f 59//56 62//58 60//59
f 62//58 64//60 63//61
f 64//60 66//62 65//63
f 66//62 68//64 67//65
f 68//64 71//66 69//67
f 71//66 73//68 72//69
f 73//68 75//70 74//71
f 75//70 77//72 76//73
f 77//72 79//74 78//75
f 79//74 81//76 78//75
f 81//76 151//32 32//77
f 104//78 127//79 126//80
f 92//81 93//82 121//83
f 101//84 102//85 126//80
f 90//86 91//87 120//88
f 100//89 125//90 124//91
f 88//92 89//93 118//94
f 109//95 130//96 129//97
f 86//98 87//99 117//100
f 97//101 98//102 123//103
f 107//104 129//97 128//105
f 85//106 116//107 115//108
f 93//82 94//109 121//83
f 82//110 114//111 132//112
f 91//87 92//81 120//88
f 112//113 132//112 131//114
f 100//89 101//84 125//90
f 89//93 90//86 119//115
f 110//116 131//114 130//96
f 98//102 99//117 124//91
f 88//92 118//94 117//100
f 85//106 86//98 116//107
f 97//101 123//103 122//118
f 105//119 106//120 128//105
f 83//121 84//122 115//108
f 94//109 95//123 122//118
f 114//111 134//124 133//125
f 114//111 133//125 150//126
f 126//80 145//127 144//128
f 120//88 139//129 138//130
f 132//112 150//126 149//131
f 125//90 144//128 143//132
f 119//115 138//130 137//133
f 131//114 149//131 148//134
f 124//91 143//132 142//135
f 118//94 137//133 136//136
f 129//97 148//134 147//137
f 123//103 142//135 141//138
f 128//105 147//137 146//139
f 122//118 141//138 140//140
f 127//79 146//139 145//127
f 121//83 140//140 139//129
f 117//100 136//136 135//141
f 116//107 135//141 134//124
f 77//72 75//70 151//32
f 64//60 62//58 151//32
f 51//49 49//47 151//32
f 73//68 71//66 151//32
f 38//37 36//35 151//32
f 56//55 55//53 151//32
f 79//74 77//72 151//32
f 62//58 59//56 151//32
f 42//41 40//39 151//32
f 66//62 64//60 151//32
f 47//45 45//43 151//32
f 71//66 68//64 151//32
f 53//51 51//49 151//32
f 75//70 73//68 151//32
f 40//39 38//37 151//32
f 59//56 56//55 151//32
f 81//76 79//74 151//32
f 45//43 42//41 151//32
f 68//64 66//62 151//32
f 49//47 47//45 151//32
f 36//35 35//33 151//32
f 55//53 53//51 151//32
f 141//138 142//135 147//137
f 136//136 137//133 147//137
f 142//135 143//132 147//137
f 148//134 149//131 147//137
f 137//133 138//130 147//137
f 143//132 144//128 147//137
f 149//131 150//126 147//137
f 138//130 139//129 147//137
f 144//128 145//127 147//137
f 150//126 133//125 147//137
f 133//125 134//124 147//137
f 134//124 135//141 147//137
f 135//141 136//136 147//137
f 139//129 140//140 147//137
f 145//127 146//139 147//137
f 140//140 141//138 147//137
f 32//77 151//32 33//34
f 33//34 35//33 34//36
f 34//36 36//35 37//38
f 37//38 38//37 39//40
f 39//40 40//39 41//42
f 41//42 42//41 43//44
f 43//44 45//43 44//142
f 44//142 45//43 46//46
f 46//46 47//45 48//48
f 48//48 49//47 50//50
f 50//50 51//49 52//52
f 52//52 53//51 54//54
f 54//54 56//55 57//57
f 57//57 59//56 58//143
f 58//143 59//56 60//59
f 60//59 62//58 61//144
f 61//144 62//58 63//61
f 63//61 64//60 65//63
f 65//63 66//62 67//65
f 67//65 68//64 69//67
f 69//67 71//66 70//145
f 70//145 71//66 72//69
f 72//69 73//68 74//71
f 74//71 75//70 76//73
f 76//73 77//72 78//75
f 80//146 81//76 32//77
f 78//75 81//76 80//146
f 103//147 104//78 126//80
f 120//88 92//81 121//83
f 112//113 113//148 132//112
f 125//90 101//84 126//80
f 119//115 90//86 120//88
f 110//116 111//149 131//114
f 99//117 100//89 124//91
f 108//150 109//95 129//97
f 116//107 86//98 117//100
f 106//120 107//104 128//105
f 84//122 85//106 115//108
f 95//123 96//151 122//118
f 104//78 105//119 127//79
f 82//110 83//121 114//111
f 113//148 82//110 132//112
f 102//85 103//147 126//80
f 111//149 112//113 131//114
f 118//94 89//93 119//115
f 109//95 110//116 130//96
f 123//103 98//102 124//91
f 87//99 88//92 117//100
f 107//104 108//150 129//97
f 96//151 97//101 122//118
f 127//79 105//119 128//105
f 114//111 83//121 115//108
f 121//83 94//109 122//118
f 132//112 114//111 150//126
f 131//114 132//112 149//131
f 118//94 119//115 137//133
f 130//96 131//114 148//134
f 123//103 124//91 142//135
f 117//100 118//94 136//136
f 122//118 123//103 141//138
f 127//79 128//105 146//139
f 114//111 115//108 134//124
f 121//83 122//118 140//140
f 126//80 127//79 145//127
f 120//88 121//83 139//129
f 125//90 126//80 144//128
f 119//115 120//88 138//130
f 124//91 125//90 143//132
f 129//97 130//96 148//134
f 116//107 117//100 135//141
f 128//105 129//97 147//137
f 115//108 116//107 134//124
